PathFileType	4	(X/Y/Z)	Patient4_TMGait_0pt8_01_left_12.trc.trc
DataRate	CameraRate	NumFrames	NumMarkers	Units	OrigDataRate	OrigDataStartFrame	OrigNumFrames
89.171974522293	89.171974522293	4	33	mm	89.171974522293	124	       141
Frame#	Time	Sacral			L.Shoulder			Chest			R.Shoulder			Neck			R.ASIS			L.ASIS			R.Thigh.Superior			R.Thigh.Lateral			R.Thigh.Inferior			R.Patella			L.Thigh.Superior			L.Thigh.Lateral			L.Thigh.Inferior			L.Patella			L.Shank.Superior			L.Shank.Lateral			L.Shank.Inferior			R.Shank.Superior			R.Shank.Lateral			R.Shank.Inferior			R.Heel			R.Midfoot.Superior			R.Midfoot.Lateral			R.Toe			L.Heel			L.Midfoot.Lateral			L.Midfoot.Superior			L.Toe			L.Elbow			L.Wrist			R.Elbow			R.Wrist			
		X1	Y1	Z1	X2	Y2	Z2	X3	Y3	Z3	X4	Y4	Z4	X5	Y5	Z5	X6	Y6	Z6	X7	Y7	Z7	X8	Y8	Z8	X9	Y9	Z9	X10	Y10	Z10	X11	Y11	Z11	X12	Y12	Z12	X13	Y13	Z13	X14	Y14	Z14	X15	Y15	Z15	X16	Y16	Z16	X17	Y17	Z17	X18	Y18	Z18	X19	Y19	Z19	X20	Y20	Z20	X21	Y21	Z21	X22	Y22	Z22	X23	Y23	Z23	X24	Y24	Z24	X25	Y25	Z25	X26	Y26	Z26	X27	Y27	Z27	X28	Y28	Z28	X29	Y29	Z29	X30	Y30	Z30	X31	Y31	Z31	X32	Y32	Z32	X33	Y33	Z33	

124	14.019357142857	862.210859301159	993.334494463459	526.113656680100	1002.757504943942	1423.696122316136	333.160067173583	1128.586034261890	1353.206489582131	476.747031987406	1070.064121482496	1424.848502477018	660.929832811953	1017.890352796571	1482.301289994782	489.903618698001	1095.478911820132	931.981752513322	623.273641502789	1059.454701672546	945.821955837277	348.854036082047	1086.507698499312	717.124882561109	599.513465787068	979.911971987508	626.483140983160	664.950071698552	1033.814425315151	558.968386501076	583.627566232214	1010.501760866696	474.249176137665	588.555359894919	1139.349188935191	765.436171418142	378.617265379968	1089.120730788246	632.658318722618	305.607436702916	1199.023353076148	580.173372977388	360.400528310541	1227.472365039492	517.410813800959	358.328169601228	1215.521993344310	444.547479713716	349.979860651426	1156.152576715273	308.771556497514	308.593307631358	1255.168838240061	219.015624802883	358.668789004690	968.791751291836	391.377759007332	597.581423901481	883.421600853411	300.036962717150	661.710692067295	907.923780463503	200.417154433444	596.795036793024	754.731109191345	43.863871633714	566.760842757264	926.637318743893	96.617354899072	601.802026551573	837.979934857329	36.304915548164	640.526965542275	1046.134703820311	44.046785117630	628.855477679002	1189.401694287494	38.753305885650	407.917436520733	1256.174814755223	44.754208764279	321.719962427318	1323.992490206920	124.812210039468	335.633477009610	1456.117212775149	101.074189508829	298.640916627001	838.527567974567	1114.712396177015	245.454858202057	763.079929945899	866.895221181042	259.747906515598	1247.303925639068	1134.122391043396	749.797948702740	1450.898900056637	1246.795902069888	654.269942405292	
125	14.030571428571	863.261303751843	992.437378212839	523.522696999528	1003.853513839079	1422.281623037602	330.715980846042	1129.699474861917	1351.920341744093	474.349265038848	1071.123528998779	1424.033292948169	658.304259976833	1018.806239795896	1481.045172321050	487.384501355649	1096.065756806004	930.222996244776	621.487288282153	1061.039638424029	944.438475413059	346.887474804867	1085.945849862098	715.178082605263	598.351632754405	978.181209545406	625.323477387668	663.149782469653	1032.243402644954	557.098848524290	582.403749954577	1007.971457488607	472.045307727034	587.192114809190	1141.115530096366	764.253323069524	377.341861590782	1089.667368473978	630.999621228926	305.902581112343	1199.549106036631	578.687493483040	360.507970212832	1226.805526737724	514.509397638755	359.135519085056	1213.973406442163	441.212859064357	350.717489799803	1151.973792497925	306.251163932793	310.361633946112	1249.319771628703	214.981367260840	360.824228070982	964.934072060243	389.828676612683	596.313170450208	878.052555164125	300.075653115764	660.627701027819	900.881924358711	199.808792663970	596.242177185749	745.754008741619	44.356576865415	566.879694768359	917.864056456904	96.557107516899	601.688002706274	829.053093172858	36.420854001444	640.498550113973	1037.299025068902	43.346491790359	628.967970314038	1179.559620645801	37.570081251612	410.936316314719	1245.420275232745	42.162056905778	323.854972212433	1316.072548131401	119.383426631385	338.061540251509	1447.152041672134	91.188178602394	299.192703212553	836.845725757660	1115.226829313921	243.934501377428	760.023178209308	867.750303870740	258.824636066149	1250.943119433125	1136.222975612351	748.080331445795	1447.012734473635	1258.765134155869	650.981978773847	
126	14.041785714286	864.322703166643	991.544722353513	520.768385076273	1005.112757352999	1420.838641200370	328.103828505786	1130.897442801673	1350.667427028142	471.893556256600	1072.125851684452	1423.251566730729	655.613056432238	1019.787884136518	1479.837431891192	484.686412506473	1096.705938335828	928.494933151069	619.686834306111	1062.764967176957	943.143252013280	344.956540688402	1085.563973730596	713.282728715796	597.084327077825	976.670617103554	624.173065086684	661.201780136534	1030.960904368533	555.246901759657	581.026965423725	1005.798922474813	469.729751613127	585.697660768118	1143.024401020264	763.062608511579	376.164156774286	1090.487704656513	629.676900434081	305.786641963319	1200.176633346666	577.324589770482	360.556375060817	1226.184807917114	511.831913422448	359.763775843334	1212.561420746742	438.199185197570	351.130185804277	1148.238028359554	304.107569092697	311.314745733020	1243.743483166061	211.350904406805	362.434212664644	961.323367679151	388.271081953227	594.906175888079	872.893464470671	300.197439861082	659.448347629902	893.960079839274	199.279372603400	595.620815683008	736.753697693194	45.097259728926	567.045309826386	909.159016864512	96.534294950024	601.593837234517	820.136627167260	36.639897284591	640.488427748594	1028.492863816519	42.616095209673	629.084348352167	1169.764231215691	36.808901095184	413.071547792149	1235.040179972260	39.977145263693	325.377532060908	1308.456338930415	114.353647267521	340.103732964328	1438.548399835634	81.690752714754	299.944960563956	835.998460917368	1115.206023325027	242.285378873457	758.112078821513	867.990894858401	257.676805049086	1254.042456300841	1137.908829363097	746.572862816497	1442.617718653184	1269.296293030026	647.992806770244	
127	14.053000000000	865.361332923083	990.709821358816	517.901241334239	1006.532706365514	1419.423169815425	325.345419219152	1132.170631588402	1349.493897713382	469.403955404627	1073.076975550465	1422.559749374620	652.879999346343	1020.843168416453	1478.739513825544	481.826036636549	1097.378901056136	926.865127263785	617.854908272019	1064.558382738442	942.009671956979	343.054224205730	1085.383527786430	711.514245074269	595.650227369820	975.483888631722	623.063358650677	659.111591130281	1030.053341927438	553.470028120874	579.464665449398	1004.119091359332	467.323302949292	584.093919655510	1145.001872798285	761.976657006795	375.073761996185	1091.619385582536	628.788791457015	305.183738140947	1200.937651722603	576.200241232692	360.456180937959	1225.694791115186	509.535736485222	360.091458355258	1211.368705077596	435.633623479173	351.182954524614	1145.061616135870	302.455975093809	311.396862265861	1238.534898339159	208.266702908712	363.471140782845	958.061985135906	386.741674522121	593.384514529038	868.031405043208	300.461591554843	658.199523909553	887.228209539295	198.888044772612	594.954197866760	727.757619162048	46.213643186830	567.271390394566	900.575807424351	96.558569270114	601.533690943191	811.248668810022	37.028284851344	640.508059345946	1019.719204102561	41.861501334549	629.198071199140	1160.248165158930	36.452297659193	414.376040045120	1225.233495189380	38.264096736619	326.311841755876	1301.191215177547	109.954858798954	341.694157888957	1430.380409480959	73.100417510203	300.797507417951	836.043125628733	1114.634111254073	240.483411974922	757.378839419074	867.603437081009	256.284462074191	1256.537976719194	1139.135238602369	745.270771405273	1437.823504042344	1278.375974351975	645.302797090612	
